<?xml version="1.0" standalone="no"?>
<!DOCTYPE svg PUBLIC "-//W3C//DTD SVG 20010904//EN"
 "http://www.w3.org/TR/2001/REC-SVG-20010904/DTD/svg10.dtd">
<svg version="1.0" xmlns="http://www.w3.org/2000/svg"
 width="1500.000000pt" height="1500.000000pt" viewBox="0 0 1500.000000 1500.000000"
 preserveAspectRatio="xMidYMid meet">

<g transform="translate(0.000000,1500.000000) scale(0.100000,-0.100000)"
fill="#000000" stroke="none">
<path d="M921 8376 c-9 -10 -11 -606 -8 -2402 4 -2616 0 -2458 62 -2756 232
-1124 1118 -2010 2242 -2243 65 -14 181 -33 258 -42 132 -17 375 -18 4030 -18
3655 0 3898 1 4030 18 77 9 193 28 258 42 1124 233 2010 1119 2242 2243 61
295 58 170 62 2476 3 1415 0 2112 -6 2120 -7 9 -7 16 0 23 8 8 7 13 -3 18 -7
5 -10 5 -6 0 10 -11 -23 -34 -40 -27 -10 3 -11 7 -2 12 8 5 4 9 -10 13 -16 4
-24 1 -27 -14 -6 -21 -18 -25 -29 -7 -5 7 -3 8 6 3 8 -5 11 -3 8 5 -2 7 -15
17 -27 22 -20 7 -22 6 -12 -6 8 -9 8 -16 2 -20 -5 -4 -12 -2 -16 4 -3 5 -11
10 -16 10 -6 0 -8 -4 -4 -9 3 -5 1 -12 -4 -15 -5 -4 -13 -1 -17 5 -5 8 -3 9 6
4 9 -5 11 -4 6 4 -4 6 -12 8 -18 5 -6 -4 -8 2 -4 17 3 13 3 19 0 12 -3 -7 -12
-9 -20 -6 -8 3 -14 0 -14 -7 0 -6 -5 -8 -12 -4 -7 4 -8 3 -4 -5 6 -9 11 -9 21
-1 9 8 14 6 19 -6 3 -8 6 -17 6 -18 0 -2 -13 -3 -29 -2 -16 1 -27 5 -24 9 3 5
-1 8 -8 6 -26 -3 -40 1 -34 11 3 5 11 8 18 6 7 -1 9 -1 4 1 -4 3 -5 9 -1 14
11 19 -15 8 -29 -11 -13 -18 -15 -19 -21 -5 -3 9 -2 13 4 10 6 -3 10 -1 10 5
0 7 -6 10 -12 7 -7 -2 -12 -11 -12 -19 1 -8 -4 -15 -10 -15 -6 0 -19 -4 -28
-8 -21 -8 -26 19 -6 31 7 5 9 2 5 -9 -4 -11 -2 -14 9 -10 12 4 12 8 2 20 -11
13 -14 12 -30 -7 -10 -12 -18 -17 -18 -10 0 9 -8 7 -25 -4 -15 -10 -25 -12
-25 -6 0 6 -5 8 -12 4 -8 -5 -9 -2 -5 9 5 12 1 17 -12 17 -11 0 -21 3 -24 8
-2 4 -2 1 0 -7 2 -8 -2 -11 -12 -7 -9 3 -13 2 -10 -4 3 -6 -1 -10 -9 -10 -9 0
-18 0 -21 0 -3 0 -5 3 -4 8 1 4 5 6 11 4 5 -1 7 2 4 7 -8 13 -71 8 -69 -5 1
-6 -4 -11 -12 -11 -8 0 -12 3 -10 7 2 4 -7 5 -20 2 -15 -2 -25 0 -25 7 0 7 -4
9 -10 6 -5 -3 -10 -1 -10 4 0 6 -4 11 -10 11 -6 0 -6 -10 0 -27 8 -23 8 -25
-2 -12 -17 21 -29 24 -39 7 -7 -10 -9 -10 -10 2 -1 8 -1 18 0 22 0 4 -6 5 -14
2 -8 -4 -13 -10 -10 -14 3 -4 -3 -14 -13 -21 -9 -7 -14 -9 -10 -5 8 10 -35 36
-58 36 -8 0 -14 -5 -14 -12 0 -9 -3 -9 -12 0 -10 10 -10 15 2 22 13 8 12 10
-2 10 -16 0 -22 -10 -20 -31 1 -4 -9 -2 -23 4 -13 7 -21 15 -19 19 3 5 -2 8
-10 8 -9 0 -13 -6 -10 -14 3 -8 1 -17 -5 -21 -6 -3 -11 -2 -11 3 0 5 -10 8
-22 7 -13 -1 -29 5 -36 14 -7 9 -12 12 -11 6 3 -24 -2 -36 -12 -29 -6 3 -8 15
-6 26 4 15 2 17 -8 8 -7 -6 -20 -8 -29 -4 -11 4 -16 1 -16 -10 0 -22 -17 -20
-22 2 -3 10 -13 19 -22 19 -12 0 -15 -6 -10 -21 6 -19 5 -20 -11 -6 -11 8 -16
10 -12 3 4 -6 3 -14 -2 -17 -5 -4 -8 5 -6 19 l2 26 -22 -21 c-23 -21 -44 -13
-29 11 4 7 1 10 -7 7 -8 -3 -14 -10 -14 -16 0 -5 -4 -14 -9 -19 -5 -5 -6 -2
-1 6 6 10 2 12 -13 7 -17 -6 -20 -3 -17 13 2 14 -1 18 -11 14 -7 -3 -11 -10
-7 -16 3 -5 1 -7 -5 -3 -6 3 -18 -4 -26 -16 -13 -18 -16 -19 -16 -5 0 9 -5 17
-11 17 -8 0 -8 4 -1 13 8 9 2 13 -23 14 -36 3 -56 -14 -34 -28 11 -7 12 -9 1
-9 -8 0 -16 8 -19 19 -2 10 -16 24 -29 30 -19 8 -24 8 -18 -1 5 -7 2 -9 -8 -5
-12 4 -15 0 -11 -16 4 -18 3 -19 -6 -7 -7 10 -11 11 -11 3 0 -7 -4 -13 -10
-13 -5 0 -7 6 -4 14 7 19 -6 25 -31 15 -17 -6 -17 -8 -2 -8 17 -1 22 -12 11
-24 -4 -4 -16 3 -27 16 -19 21 -20 21 -15 1 3 -13 0 -21 -8 -21 -7 0 -12 5
-11 11 1 6 -9 12 -23 14 -21 3 -22 2 -11 -12 12 -14 12 -16 -2 -11 -8 4 -17
15 -20 26 -5 20 -27 27 -27 8 0 -5 4 -8 8 -5 4 2 8 -4 8 -15 0 -16 -4 -14 -24
11 -21 27 -52 44 -37 20 3 -5 -2 -10 -12 -10 -14 0 -15 -2 -5 -9 11 -7 10 -9
-3 -14 -9 -4 -14 -3 -11 2 3 5 -1 14 -8 20 -10 8 -16 9 -21 2 -12 -20 -43 -32
-51 -19 -4 7 -3 8 4 4 18 -11 14 0 -5 15 -11 10 -14 10 -9 1 5 -8 1 -11 -16
-8 -13 2 -31 -1 -40 -6 -15 -7 -18 -4 -19 14 -1 17 -3 18 -6 6 -6 -23 -32 -23
-50 0 -8 9 -11 11 -7 3 5 -11 3 -13 -10 -8 -12 5 -19 0 -25 -15 -5 -14 -10
-18 -15 -10 -4 7 -11 10 -16 7 -14 -9 -23 15 -10 30 9 11 7 12 -9 8 -13 -3
-18 -10 -14 -21 5 -12 2 -14 -12 -9 -9 4 -23 2 -31 -3 -9 -9 -16 -6 -24 11
-11 20 -10 21 6 15 15 -6 16 -5 7 5 -10 10 -16 9 -29 -2 -16 -12 -17 -12 -11
4 6 15 4 16 -13 7 -11 -6 -25 -8 -30 -5 -6 3 -7 -1 -4 -10 5 -11 2 -14 -12 -8
-10 4 -15 2 -11 -4 3 -5 0 -10 -8 -10 -18 0 -19 9 -4 24 9 9 4 11 -17 8 -16
-1 -37 1 -46 6 -15 8 -18 6 -18 -12 0 -12 -3 -19 -7 -16 -3 4 -12 2 -20 -4
-16 -14 -17 -5 -2 24 7 12 8 19 4 15 -5 -4 -14 -3 -20 2 -9 8 -14 6 -18 -4 -4
-11 -1 -13 11 -10 14 5 14 3 -2 -10 -15 -12 -51 -16 -63 -5 -2 1 -9 2 -15 3
-7 1 -12 8 -10 16 1 8 -7 4 -19 -10 -20 -23 -22 -24 -34 -7 -7 10 -21 17 -32
15 -11 -2 -17 2 -15 11 3 12 0 12 -12 1 -11 -8 -16 -9 -16 -1 0 6 -5 11 -12
11 -9 0 -9 -3 0 -12 16 -16 16 -33 0 -21 -7 6 -21 9 -30 8 -10 -2 -18 2 -18 8
0 7 -4 6 -10 -3 -7 -11 -12 -12 -21 -3 -9 9 -18 9 -32 2 -13 -8 -17 -8 -13 -1
3 6 2 13 -4 17 -5 3 -10 -1 -10 -9 0 -9 -5 -16 -11 -16 -5 0 -7 5 -4 10 7 11
-9 13 -42 4 -13 -4 -20 -11 -16 -18 3 -6 -4 -2 -16 9 -19 16 -24 17 -31 5 -9
-14 -14 -7 -11 13 1 5 -3 6 -9 2 -6 -3 -8 -10 -6 -13 2 -4 -18 -8 -45 -8 -44
0 -48 2 -45 20 3 17 -2 21 -25 22 -16 1 -29 -3 -29 -8 0 -5 5 -6 10 -3 6 3 10
1 10 -4 0 -6 -7 -11 -16 -11 -8 0 -13 -4 -9 -9 3 -6 -4 -9 -15 -8 -11 1 -20 7
-20 14 0 7 7 10 18 6 14 -5 15 -3 5 7 -10 11 -15 11 -28 0 -13 -11 -18 -9 -34
9 -20 23 -41 30 -22 8 6 -8 8 -17 4 -20 -3 -4 0 -7 7 -7 7 0 11 -2 8 -5 -10
-11 -58 7 -58 21 0 8 -4 14 -10 14 -5 0 -10 -4 -10 -10 0 -5 -7 -10 -15 -10
-8 0 -15 5 -15 10 0 6 -10 10 -22 9 -13 0 -17 -3 -10 -6 14 -5 17 -33 3 -33
-5 0 -11 7 -15 15 -3 8 -13 15 -23 15 -14 0 -15 -2 -5 -9 10 -6 9 -10 -7 -14
-12 -3 -19 -2 -17 2 2 3 -1 13 -8 22 -9 14 -13 14 -24 3 -7 -8 -8 -14 -2 -14
5 0 10 -5 10 -12 0 -8 -7 -6 -17 5 -16 16 -16 19 -3 28 13 9 12 10 -2 5 -10
-3 -20 -1 -23 4 -3 4 -17 6 -33 4 -15 -2 -47 -5 -72 -6 -25 -2 -50 -10 -57
-18 -11 -13 -12 -13 -13 3 0 10 -5 15 -10 12 -6 -4 -18 -1 -26 6 -12 10 -15
10 -12 -2 2 -8 8 -17 13 -21 6 -4 -1 -8 -14 -8 -18 0 -22 4 -18 20 3 10 0 21
-7 23 -17 6 -56 -15 -56 -30 0 -8 -5 -11 -10 -8 -6 4 -7 12 -3 18 4 7 0 6 -10
-2 -15 -12 -17 -11 -17 2 0 10 -6 14 -14 11 -8 -3 -17 -1 -21 5 -8 14 -25 14
-25 1 0 -6 5 -9 11 -8 6 2 13 -2 16 -8 6 -16 -34 -10 -55 9 -18 17 -32 14 -32
-7 0 -6 5 -4 10 4 6 9 10 10 10 3 0 -23 -21 -25 -39 -4 -18 20 -18 20 -36 1
-14 -15 -21 -17 -35 -7 -10 6 -16 16 -13 22 2 5 -5 -1 -16 -15 -20 -25 -20
-25 -16 -2 2 13 0 20 -6 16 -5 -3 -16 -1 -24 6 -10 8 -17 6 -28 -10 -16 -23
-26 -17 -22 12 2 11 -3 16 -15 15 -10 -1 -16 -5 -14 -9 3 -4 1 -8 -5 -8 -5 0
-12 4 -16 10 -3 5 -12 7 -20 3 -12 -4 -15 -30 -15 -137 -1 -109 -4 -138 -20
-171 -11 -22 -19 -44 -20 -49 0 -22 -88 -188 -138 -261 -69 -101 -126 -169
-227 -268 -159 -157 -316 -255 -505 -317 -136 -45 -191 -52 -372 -48 l-167 3
-12 -50 c-16 -68 -51 -157 -120 -303 l-58 -122 19 -45 c30 -70 41 -152 50
-379 9 -226 28 -332 72 -405 93 -154 137 -211 257 -332 121 -120 205 -176 416
-274 54 -26 158 -64 300 -110 303 -99 386 -145 456 -254 27 -41 29 -53 29
-136 0 -83 -3 -97 -34 -162 -118 -245 -439 -511 -858 -711 -37 -18 -69 -32
-72 -32 -3 0 -29 -11 -58 -24 -29 -13 -78 -31 -108 -41 -30 -10 -59 -21 -65
-25 -34 -26 -411 -115 -575 -135 -211 -27 -796 -14 -890 21 -8 3 -62 14 -119
25 -336 65 -680 223 -921 424 -302 253 -476 543 -567 945 -27 121 -28 134 -28
405 0 267 1 286 28 410 28 135 76 300 107 370 39 87 50 117 45 125 -2 4 -26
10 -52 14 -51 6 -143 33 -333 97 -143 47 -208 73 -377 151 -85 38 -234 210
-303 347 -37 74 -50 132 -50 229 0 110 13 149 73 210 79 82 208 129 482 177
192 33 399 76 410 85 6 4 33 15 60 24 135 44 198 122 245 306 11 43 28 92 37
108 l17 29 -39 34 c-105 92 -205 208 -248 289 -46 87 -63 110 -84 110 -7 0
-17 -10 -22 -22 l-8 -22 -5 22 c-4 12 -3 20 2 17 9 -6 23 25 15 33 -3 3 -5 1
-5 -5 0 -6 -11 -13 -25 -15 -13 -3 -22 -1 -19 3 3 5 -4 9 -15 9 -23 0 -29 -16
-9 -22 7 -3 2 -7 -10 -10 -12 -4 -20 -2 -16 3 3 5 -2 9 -10 9 -9 0 -16 5 -16
12 0 7 -6 7 -17 -3 -10 -8 -28 -19 -40 -26 -19 -11 -21 -10 -18 13 2 19 0 22
-11 13 -11 -9 -14 -8 -14 1 0 8 -3 10 -7 7 -3 -4 -12 -2 -19 4 -10 9 -15 7
-20 -5 -3 -9 -14 -16 -23 -16 -14 0 -14 2 -1 10 8 5 10 10 4 10 -15 0 -36 -25
-27 -33 3 -4 3 -7 -1 -7 -3 0 -11 10 -16 23 -7 17 -9 18 -9 5 -1 -19 -21 -26
-21 -8 0 6 -7 10 -15 10 -9 0 -18 6 -21 14 -6 15 -54 19 -54 4 0 -5 4 -6 10
-3 12 7 13 -5 2 -20 -9 -13 -42 -18 -42 -7 0 6 -7 13 -16 16 -8 3 -12 2 -9 -4
4 -6 -3 -9 -14 -7 -24 4 -40 17 -21 17 7 0 10 3 7 7 -4 3 -16 -2 -26 -11 -24
-22 -45 -13 -31 14 8 15 6 18 -8 15 -9 -1 -16 -10 -16 -19 2 -21 -5 -20 -23 2
-8 9 -11 11 -7 3 5 -9 3 -12 -4 -7 -7 4 -12 14 -12 23 0 12 -3 13 -14 3 -8 -6
-12 -18 -9 -26 8 -22 -14 -17 -30 7 -13 18 -16 19 -24 5 -10 -19 -43 -17 -67
3 -9 8 -19 11 -23 8 -3 -4 -12 -2 -19 4 -10 8 -12 5 -8 -15 2 -15 0 -26 -6
-26 -6 0 -9 4 -6 8 6 11 -4 24 -31 39 -12 7 -25 9 -28 4 -3 -5 0 -11 7 -13 8
-3 8 -9 0 -24 -10 -17 -11 -17 -12 -1 0 20 -4 21 -30 7 -14 -7 -19 -5 -23 10
-3 11 -12 20 -20 20 -10 0 -13 -7 -10 -19 4 -16 1 -19 -16 -14 -12 3 -28 0
-36 -7 -14 -11 -14 -10 -5 14 10 27 10 27 -27 20 -29 -5 -34 -4 -28 7 7 11 6
12 -6 2 -12 -10 -18 -10 -29 0 -11 9 -10 7 0 -7 14 -17 13 -18 -7 -12 -13 4
-24 2 -29 -5 -4 -8 -3 -9 4 -5 7 4 12 2 12 -4 0 -7 -7 -9 -16 -6 -9 3 -18 6
-20 6 -3 0 -2 5 1 10 4 6 -5 10 -19 10 -14 0 -26 5 -26 12 0 6 -3 8 -7 5 -3
-4 1 -15 10 -25 14 -16 15 -19 2 -19 -8 0 -17 9 -21 19 -3 10 -9 18 -14 18 -5
0 -7 -6 -4 -14 3 -8 0 -17 -7 -22 -7 -4 -10 -3 -5 4 3 6 1 14 -5 18 -8 4 -4
11 12 20 23 12 22 12 -14 11 -42 -1 -43 -3 -20 -29 9 -10 14 -21 10 -24 -3 -3
-13 6 -22 20 -10 14 -22 26 -29 26 -6 0 -4 -5 4 -10 13 -9 13 -10 -1 -10 -8 0
-20 5 -27 12 -13 13 -42 20 -41 10 3 -19 -3 -45 -8 -34 -2 6 -9 12 -14 12 -6
0 -7 -4 -4 -10 3 -5 1 -10 -4 -10 -6 0 -11 7 -11 15 0 9 -10 15 -26 15 -17 0
-23 4 -18 13 5 8 3 8 -9 -2 -9 -7 -14 -18 -10 -24 4 -6 -8 -1 -25 12 l-32 22
-11 -25 c-11 -23 -13 -24 -34 -10 -12 8 -25 11 -28 7 -4 -3 -7 -1 -7 5 0 7
-13 12 -30 12 -16 0 -30 -4 -30 -10 0 -5 -4 -10 -9 -10 -5 0 -7 10 -3 22 l5
21 -22 -22 c-12 -12 -26 -19 -31 -16 -17 11 -11 23 8 18 12 -3 19 1 19 12 0
10 -4 12 -10 6 -5 -5 -16 -7 -24 -4 -9 4 -16 -2 -20 -16 -3 -11 -9 -18 -14
-15 -5 3 -7 9 -5 13 10 15 -46 5 -58 -11 -7 -10 -17 -13 -25 -9 -9 6 -10 11
-3 15 14 9 5 33 -13 33 -7 0 -12 -8 -10 -19 3 -15 1 -16 -15 -8 -24 13 -63 13
-55 0 4 -6 11 -8 16 -5 5 4 9 1 9 -4 0 -18 -18 -13 -33 9 -13 18 -15 18 -37 3
-22 -16 -23 -16 -18 9 5 27 -12 31 -47 9 -18 -11 -17 -12 10 -7 17 3 24 3 17
0 -6 -3 -10 -10 -7 -14 3 -5 -7 -5 -22 -1 -16 4 -34 6 -42 3 -8 -3 -12 1 -8 9
2 8 10 13 16 11 6 -1 11 3 11 8 0 6 -12 9 -27 7 -16 -3 -27 -9 -26 -15 1 -5
-7 -8 -18 -5 -12 3 -24 0 -29 -6 -5 -9 -9 -8 -13 4 -4 9 -3 14 2 11 5 -3 11 1
15 9 7 20 -14 14 -37 -10 -10 -11 -15 -13 -11 -5 5 12 4 12 -6 3 -13 -12 -43
-7 -35 6 2 4 -2 8 -10 8 -10 0 -11 -5 -4 -19 6 -11 6 -18 0 -18 -5 0 -13 9
-16 20 -7 22 -20 26 -30 9 -5 -6 -12 -4 -21 8 -8 11 -13 13 -14 6 0 -15 -36
-17 -45 -3 -3 6 -11 10 -16 10 -6 0 -8 -4 -4 -9 7 -12 -24 -43 -36 -36 -5 4
-9 12 -9 18 0 7 4 6 10 -3 7 -11 10 -12 10 -2 0 7 -6 20 -14 28 -13 12 -16 11
-22 -8 -5 -18 -8 -19 -15 -6 -14 26 -99 8 -100 -20 0 -13 -2 -13 -9 3 -10 27
-36 48 -49 41 -5 -3 -12 0 -14 6 -3 7 -6 5 -6 -6 -1 -11 -4 -17 -7 -14 -3 4
-19 2 -35 -2 -18 -6 -31 -5 -35 2 -5 7 -2 8 6 3 8 -5 11 -4 6 3 -10 16 -46 10
-43 -7 1 -8 -7 -15 -20 -16 -13 -1 -23 2 -23 7 0 4 8 8 18 9 11 0 12 2 4 6 -7
3 -19 -1 -27 -7 -12 -10 -15 -9 -15 3 0 9 -5 19 -10 22 -6 4 -10 3 -9 -2 3
-18 -3 -47 -8 -36 -3 8 -14 11 -29 7 -18 -5 -24 -2 -24 11 0 9 -4 13 -10 10
-6 -3 -10 1 -10 11 0 13 -3 14 -15 4 -12 -10 -15 -10 -15 1 0 8 -9 -1 -20 -18
-11 -18 -22 -33 -25 -33 -3 0 2 11 11 25 15 23 15 25 0 25 -11 0 -14 -4 -10
-12 5 -9 2 -9 -9 1 -11 9 -17 10 -17 2 0 -6 -5 -11 -11 -11 -5 0 -7 6 -3 13 6
10 4 10 -7 0 -19 -19 -45 -17 -30 1 9 11 9 16 0 22 -7 4 -9 3 -6 -3 4 -6 0
-17 -9 -24 -13 -10 -17 -10 -25 2 -5 8 -9 10 -9 6 0 -4 -10 -3 -21 4 -16 8
-23 8 -29 -1 -4 -7 -16 -9 -29 -5 -12 3 -18 11 -15 17 4 7 2 8 -4 4 -13 -8 -5
-36 11 -36 6 0 8 -2 5 -5 -3 -3 -17 0 -31 6 -21 9 -30 9 -42 -1 -12 -10 -15
-10 -15 4 0 10 4 15 9 11 5 -3 12 -2 14 3 3 4 -6 13 -20 19 -20 10 -23 10 -13
-2 7 -9 8 -15 0 -20 -5 -3 -10 -1 -10 4 0 6 -5 11 -11 11 -5 0 -7 -5 -3 -12 5
-8 2 -9 -10 -5 -10 4 -23 7 -29 7 -7 0 -6 4 3 10 8 5 10 10 4 10 -6 0 -19 -10
-28 -22 -12 -16 -18 -19 -22 -10 -3 6 -13 12 -22 12 -13 0 -13 3 4 16 18 14
18 15 -3 4 -25 -12 -30 -26 -10 -33 9 -4 9 -6 0 -6 -6 -1 -14 3 -18 9 -3 6
-15 6 -30 0 -20 -8 -27 -6 -36 11 -10 19 -12 19 -32 6 -12 -9 -21 -21 -19 -27
1 -6 -2 -9 -7 -6 -13 8 -7 36 10 48 11 8 10 9 -4 4 -10 -3 -23 -6 -28 -6 -6 0
-8 -4 -5 -9 3 -4 -6 -6 -19 -3 -14 2 -22 9 -18 15 4 6 1 7 -8 1 -16 -10 -80
-14 -74 -5 2 4 -5 7 -15 7 -10 0 -18 -5 -17 -11 1 -5 -5 -10 -13 -10 -8 0 -14
6 -12 14 3 12 0 12 -12 1 -15 -11 -20 -7 -17 12 0 4 -7 4 -16 1 -12 -5 -14 -3
-8 8 8 12 6 12 -9 0 -9 -8 -15 -20 -12 -27 3 -7 1 -16 -5 -19 -5 -4 -8 -1 -7
6 4 18 -24 18 -40 -1 -8 -8 -11 -10 -8 -3 10 19 -5 43 -28 42 -20 0 -20 -1 -1
-9 16 -7 17 -9 3 -9 -9 -1 -22 7 -27 17 -9 15 -10 15 -11 -5 0 -12 -4 -25 -10
-28 -5 -3 -10 -1 -10 5 0 7 -7 9 -15 6 -10 -4 -19 2 -25 17 -8 19 -15 10 -11
-15 0 -5 -3 -8 -9 -8 -5 0 -10 5 -10 12 0 6 -9 3 -20 -7 -19 -17 -20 -17 -20
-1 0 9 4 15 8 12 5 -3 9 1 9 9 0 10 -4 12 -12 5 -7 -5 -15 -6 -20 -2 -4 4 -4
-3 -1 -15 6 -18 4 -22 -8 -17 -9 3 -14 10 -11 14 3 5 1 12 -5 15 -6 4 -10 3
-9 -2 3 -20 -2 -34 -11 -28 -6 4 -8 11 -5 16 3 5 0 6 -8 3 -8 -3 -20 2 -27 11
-15 18 -51 20 -69 3 -8 -8 -11 -8 -8 -2 4 7 -3 12 -19 12 -16 0 -29 -8 -35
-22 -8 -19 -9 -18 -6 7 4 26 3 27 -17 13 -11 -8 -20 -20 -18 -26 1 -6 -2 -9
-8 -5 -6 3 -8 10 -6 14 3 4 0 13 -5 21 -8 13 -10 13 -18 0 -7 -10 -6 -17 2
-23 8 -6 5 -7 -7 -3 -11 4 -23 1 -28 -6 -6 -10 -8 -9 -8 4 0 9 6 19 13 21 9 4
9 6 -1 6 -7 1 -10 6 -7 11 9 15 -1 12 -14 -4z m169 -42 c0 -12 -2 -12 -14 -2
-8 7 -12 16 -9 21 7 11 23 -2 23 -19z m635 -22 c-3 -3 -11 0 -18 7 -9 10 -8
11 6 5 10 -3 15 -9 12 -12z m535 -10 c0 -5 -7 -9 -15 -9 -8 0 -15 4 -15 9 0 4
7 8 15 8 8 0 15 -4 15 -8z m194 -11 c3 -5 0 -11 -7 -14 -8 -3 -14 1 -14 9 0
16 13 19 21 5z m322 -7 c-3 -8 -2 -12 4 -9 6 3 10 2 10 -3 0 -6 -7 -12 -15
-16 -11 -4 -15 1 -15 19 0 14 5 25 11 25 6 0 8 -7 5 -16z m-406 0 c0 -8 -19
-13 -24 -6 -3 5 1 9 9 9 8 0 15 -2 15 -3z m380 -6 c0 -4 -4 -8 -9 -8 -6 0 -12
4 -15 8 -3 5 1 9 9 9 8 0 15 -4 15 -9z m104 -13 c-4 -8 -8 -15 -10 -15 -2 0
-4 7 -4 15 0 8 4 15 10 15 5 0 7 -7 4 -15z m260 0 c4 -11 -2 -15 -21 -15 -26
0 -26 1 -7 15 10 8 20 15 20 15 1 0 4 -7 8 -15z m-84 1 c0 -2 -7 -7 -16 -10
-8 -3 -12 -2 -9 4 6 10 25 14 25 6z m495 -26 c3 -5 1 -10 -4 -10 -6 0 -11 5
-11 10 0 6 2 10 4 10 3 0 8 -4 11 -10z m395 -11 c0 -6 -4 -7 -10 -4 -5 3 -10
11 -10 16 0 6 5 7 10 4 6 -3 10 -11 10 -16z m177 5 c-3 -3 -12 -4 -19 -1 -8 3
-5 6 6 6 11 1 17 -2 13 -5z m283 -25 c0 -6 -4 -7 -10 -4 -5 3 -10 11 -10 16 0
6 5 7 10 4 6 -3 10 -11 10 -16z m410 -13 c0 -3 -4 -8 -10 -11 -5 -3 -10 -1
-10 4 0 6 5 11 10 11 6 0 10 -2 10 -4z m320 -11 c0 -12 -19 -12 -23 0 -4 9 -1
12 9 8 7 -3 14 -7 14 -8z m144 0 c3 -8 1 -15 -4 -15 -6 0 -10 7 -10 15 0 8 2
15 4 15 2 0 6 -7 10 -15z m4647 -169 c8 5 10 2 6 -8 -3 -9 0 -21 6 -27 7 -7 1
-6 -16 1 -15 7 -27 18 -27 23 0 6 -5 3 -10 -5 -8 -13 -10 -13 -10 1 0 23 11
30 26 18 7 -6 19 -7 25 -3z m705 -39 c2 -18 -22 -12 -30 8 -3 8 2 12 11 11 9
-2 17 -10 19 -19z m-80 2 c3 -6 1 -16 -5 -22 -8 -8 -11 -6 -11 8 0 15 -3 16
-12 7 -7 -7 -19 -12 -27 -12 -10 0 -6 6 9 14 32 18 37 18 46 5z m39 1 c3 -6
-1 -7 -9 -4 -18 7 -21 14 -7 14 6 0 13 -4 16 -10z m859 -46 c3 -8 2 -12 -4 -9
-6 3 -10 10 -10 16 0 14 7 11 14 -7z m36 -4 c0 -5 -2 -10 -4 -10 -3 0 -8 5
-11 10 -3 6 -1 10 4 10 6 0 11 -4 11 -10z m235 1 c3 -5 1 -12 -5 -16 -5 -3
-10 1 -10 9 0 18 6 21 15 7z m116 -18 c-12 -20 -14 -14 -5 12 4 9 9 14 11 11
3 -2 0 -13 -6 -23z m764 -3 c3 -5 1 -10 -5 -10 -6 0 -9 -4 -6 -8 3 -5 -1 -9
-9 -9 -17 0 -17 0 -9 21 7 18 20 21 29 6z m1010 -70 c-3 -5 -14 -10 -23 -10
-15 0 -15 2 -2 10 20 13 33 13 25 0z m432 -12 c-3 -8 -6 -5 -6 6 -1 11 2 17 5
13 3 -3 4 -12 1 -19z"/>
<path d="M1883 8330 c-1 -11 2 -18 8 -15 11 7 12 35 1 35 -4 0 -8 -9 -9 -20z"/>
<path d="M2503 8309 c-2 -23 3 -25 10 -4 4 8 3 16 -1 19 -4 3 -9 -4 -9 -15z"/>
<path d="M3497 8279 c7 -7 15 -10 18 -7 3 3 -2 9 -12 12 -14 6 -15 5 -6 -5z"/>
<path d="M3765 8270 c-3 -5 1 -10 10 -10 9 0 13 5 10 10 -3 6 -8 10 -10 10 -2
0 -7 -4 -10 -10z"/>
<path d="M3840 8252 c0 -15 28 -23 36 -9 4 7 4 9 -1 5 -4 -4 -14 -3 -22 3 -8
7 -13 8 -13 1z"/>
<path d="M4020 8250 c0 -5 5 -10 10 -10 6 0 10 5 10 10 0 6 -4 10 -10 10 -5 0
-10 -4 -10 -10z"/>
<path d="M4710 8221 c0 -10 26 -9 36 2 4 4 -2 7 -14 7 -12 0 -22 -4 -22 -9z"/>
<path d="M5136 8222 c-3 -5 1 -9 9 -9 8 0 12 4 9 9 -3 4 -7 8 -9 8 -2 0 -6 -4
-9 -8z"/>
<path d="M5024 8209 c-3 -6 -1 -16 4 -21 8 -8 11 -5 9 11 -1 24 -3 25 -13 10z"/>
<path d="M5336 8194 c-11 -8 -16 -14 -10 -14 13 0 39 18 34 24 -3 2 -14 -2
-24 -10z"/>
<path d="M9260 8038 c0 -10 -5 -18 -11 -18 -5 0 -7 5 -4 10 3 6 1 10 -4 10 -6
0 -11 -5 -11 -11 0 -5 -4 -7 -10 -4 -5 3 -10 -1 -10 -10 0 -9 -4 -14 -8 -11
-9 5 -83 -26 -115 -50 -21 -15 -17 -15 68 -9 50 4 95 11 100 15 6 4 63 13 128
20 64 7 117 17 117 22 0 5 -5 6 -12 2 -8 -5 -9 -2 -5 9 5 13 1 16 -18 15 -13
-1 -21 -6 -19 -10 3 -5 10 -5 16 -2 7 5 8 2 3 -6 -6 -10 -12 -9 -24 6 -17 20
-34 24 -47 12 -12 -13 -62 -9 -67 5 -2 6 -8 9 -12 5 -4 -4 -3 -14 3 -21 9 -10
8 -14 -3 -14 -8 0 -15 9 -15 19 0 12 -4 16 -11 12 -6 -3 -15 0 -20 7 -7 11 -9
10 -9 -3z m160 -28 c0 -5 -5 -10 -11 -10 -5 0 -7 5 -4 10 3 6 8 10 11 10 2 0
4 -4 4 -10z"/>
<path d="M9350 8040 c20 -13 43 -13 35 0 -3 6 -16 10 -28 10 -18 0 -19 -2 -7
-10z"/>
<path d="M9504 8029 c-10 -17 14 -35 28 -21 9 9 9 12 -1 12 -7 0 -9 5 -6 10 3
6 2 10 -4 10 -5 0 -13 -5 -17 -11z"/>
<path d="M9563 8033 c-7 -2 -10 -10 -7 -17 6 -16 69 -5 88 14 8 8 3 8 -16 -1
-19 -8 -31 -9 -40 -2 -7 6 -18 8 -25 6z"/>
<path d="M9668 8033 c7 -3 16 -2 19 1 4 3 -2 6 -13 5 -11 0 -14 -3 -6 -6z"/>
<path d="M10670 7989 c0 -5 5 -7 10 -4 6 3 10 8 10 11 0 2 -4 4 -10 4 -5 0
-10 -5 -10 -11z"/>
<path d="M10895 7990 c3 -5 8 -10 11 -10 2 0 4 5 4 10 0 6 -5 10 -11 10 -5 0
-7 -4 -4 -10z"/>
<path d="M11063 7965 c0 -7 6 -11 14 -8 7 3 13 6 13 8 0 2 -6 5 -13 8 -8 3
-14 -1 -14 -8z"/>
<path d="M11166 7964 c-6 -15 -4 -15 11 -3 10 7 20 15 22 16 2 2 -3 3 -11 3
-9 0 -19 -7 -22 -16z"/>
<path d="M11026 7962 c-3 -5 1 -9 9 -9 8 0 12 4 9 9 -3 4 -7 8 -9 8 -2 0 -6
-4 -9 -8z"/>
<path d="M11895 7940 c-3 -5 -1 -10 4 -10 6 0 11 5 11 10 0 6 -2 10 -4 10 -3
0 -8 -4 -11 -10z"/>
<path d="M12106 7933 c-6 -14 -5 -15 5 -6 7 7 10 15 7 18 -3 3 -9 -2 -12 -12z"/>
<path d="M11961 7927 c-8 -10 -7 -14 4 -14 8 0 15 6 15 14 0 7 -2 13 -4 13 -2
0 -9 -6 -15 -13z"/>
<path d="M12690 7909 c0 -11 4 -18 10 -14 5 3 7 12 3 20 -7 21 -13 19 -13 -6z"/>
<path d="M13625 7869 c-10 -15 3 -25 16 -12 7 7 7 13 1 17 -6 3 -14 1 -17 -5z"/>
</g>
</svg>
