<?xml version="1.0" standalone="no"?>
<!DOCTYPE svg PUBLIC "-//W3C//DTD SVG 20010904//EN"
 "http://www.w3.org/TR/2001/REC-SVG-20010904/DTD/svg10.dtd">
<svg version="1.0" xmlns="http://www.w3.org/2000/svg"
 width="1500.000000pt" height="1500.000000pt" viewBox="0 0 1500.000000 1500.000000"
 preserveAspectRatio="xMidYMid meet">

<g transform="translate(0.000000,1500.000000) scale(0.100000,-0.100000)"
fill="#000000" stroke="none">
<path d="M1955 13410 c-3 -5 -1 -10 4 -10 6 0 11 5 11 10 0 6 -2 10 -4 10 -3
0 -8 -4 -11 -10z"/>
<path d="M1811 13283 c-492 -468 -782 -1045 -878 -1748 -17 -123 -18 -340 -18
-4025 0 -4221 -3 -3976 55 -4270 74 -373 217 -718 429 -1037 217 -326 478
-587 804 -804 430 -286 896 -443 1418 -479 199 -13 7585 -13 7774 0 912 66
1714 530 2215 1283 290 434 445 897 481 1432 15 239 7 7750 -9 7865 -36 254
-77 438 -140 621 -47 139 -151 379 -164 379 -5 0 -6 5 -3 10 3 6 1 10 -4 10
-15 0 -14 -5 5 -42 15 -30 15 -32 -2 -46 -17 -13 -17 -14 -1 -9 9 4 17 2 17
-3 0 -6 -4 -10 -9 -10 -6 0 -9 -9 -8 -19 1 -13 6 -17 17 -13 12 5 13 3 2 -10
-10 -12 -10 -17 1 -27 8 -6 18 -7 22 -3 5 4 4 0 0 -8 -12 -20 -15 -111 -4
-104 5 3 5 -5 0 -19 -7 -17 -6 -29 2 -37 9 -10 9 -11 -1 -5 -11 6 -12 3 -3
-14 13 -24 6 -45 -12 -34 -9 5 -9 3 0 -8 11 -14 9 -66 -3 -78 -2 -2 3 -15 11
-28 9 -14 11 -23 5 -23 -6 0 -8 -4 -5 -10 3 -5 1 -10 -5 -10 -7 0 -5 -7 4 -16
14 -14 14 -34 0 -34 -3 0 -2 5 1 10 3 6 -1 10 -10 10 -14 0 -14 -3 0 -31 9
-17 14 -33 11 -36 -3 -3 -1 -14 5 -24 7 -14 6 -19 -3 -19 -9 0 -9 -3 -2 -8 12
-8 14 -132 2 -132 -4 0 -8 -8 -8 -17 0 -16 2 -16 10 -3 8 11 10 6 7 -20 -3
-28 -8 -34 -23 -32 -11 2 -15 0 -8 -5 6 -4 10 -17 8 -28 -2 -11 2 -23 9 -27 9
-6 9 -8 0 -8 -16 0 -17 -32 -1 -48 9 -9 9 -12 -3 -12 -9 0 -10 -3 -3 -8 13 -8
26 -95 13 -86 -5 3 -9 0 -9 -5 0 -6 4 -11 10 -11 6 0 6 -9 0 -26 -12 -31 -12
-37 -1 -30 15 10 -1 -38 -18 -52 -10 -9 -11 -11 -2 -6 11 6 13 3 6 -12 -8 -21
-8 -68 1 -98 4 -12 2 -16 -5 -12 -7 4 -11 -1 -11 -13 0 -11 8 -25 18 -30 10
-6 12 -11 4 -11 -8 0 -10 -8 -6 -25 3 -14 1 -32 -6 -39 -6 -8 -12 -32 -14 -53
-1 -21 -6 -45 -11 -52 -5 -9 -4 -12 2 -8 13 8 27 -24 15 -32 -13 -8 -6 -42 10
-53 11 -7 10 -11 -2 -21 -11 -8 -15 -28 -15 -59 1 -35 -2 -45 -11 -37 -9 7
-10 -2 -6 -37 3 -34 2 -45 -7 -40 -7 5 -10 -1 -8 -16 1 -14 -3 -22 -10 -21 -7
2 -10 -4 -7 -12 4 -8 10 -13 14 -10 5 3 5 -9 -1 -27 -5 -17 -5 -34 -1 -37 4
-4 8 -12 10 -20 2 -11 0 -12 -10 -4 -10 9 -13 5 -14 -15 -4 -71 -8 -91 -16
-86 -4 3 -8 1 -8 -5 0 -5 4 -12 8 -15 10 -6 3 -66 -8 -66 -4 0 -4 -16 0 -35 6
-26 4 -39 -6 -50 -9 -8 -10 -16 -4 -20 5 -3 10 -11 10 -17 0 -6 -8 -4 -18 5
-17 15 -18 15 -17 -11 1 -15 -5 -37 -12 -50 -11 -17 -12 -31 -5 -52 9 -25 8
-27 -11 -24 -12 2 -17 2 -10 -1 7 -4 9 -16 3 -35 -4 -16 -7 -30 -7 -32 1 -2
-3 3 -9 10 -9 9 -10 1 -7 -35 3 -36 2 -44 -6 -33 -10 13 -15 8 -12 -12 0 -5
-3 -8 -9 -8 -6 0 -9 -6 -8 -12 2 -7 -3 -12 -9 -10 -8 1 -13 -9 -13 -28 0 -17
-5 -30 -12 -30 -8 0 -9 -3 -3 -8 9 -6 10 -24 5 -92 -1 -25 -1 -25 -10 -2 -5
12 -11 22 -12 22 -3 0 -8 -35 -11 -67 0 -7 -4 -13 -8 -13 -4 0 -6 -12 -4 -27
1 -15 -3 -37 -11 -48 -8 -11 -14 -29 -14 -41 0 -23 -23 -48 -33 -37 -4 3 -7
-3 -7 -15 0 -12 -4 -22 -8 -22 -5 0 -9 -7 -9 -15 0 -12 3 -12 15 -2 12 10 12
6 -1 -20 -19 -37 -21 -47 -7 -38 11 7 13 -6 4 -29 -3 -9 -10 -14 -14 -11 -4 3
-11 -6 -14 -20 -4 -14 -12 -25 -18 -25 -7 0 -3 -7 8 -16 19 -15 18 -15 -3 -11
-18 4 -23 1 -23 -14 0 -32 -1 -34 -18 -44 -19 -11 -26 -29 -23 -64 0 -14 -5
-34 -12 -45 -8 -12 -17 -34 -21 -49 -4 -18 -11 -25 -19 -21 -9 5 -9 4 1 -7 14
-15 16 -33 3 -25 -5 3 -11 -1 -15 -9 -3 -8 -1 -15 4 -15 6 0 10 -7 10 -15 0
-8 -7 -15 -17 -15 -9 0 -13 -3 -10 -7 4 -3 -1 -12 -11 -20 -10 -9 -11 -11 -2
-7 13 7 13 5 1 -9 -7 -9 -20 -17 -28 -17 -10 0 -14 -9 -12 -28 4 -38 -9 -58
-24 -37 -10 12 -12 8 -14 -25 -1 -22 1 -38 5 -36 4 2 7 -6 7 -19 0 -14 -5 -21
-12 -18 -7 3 -10 9 -7 14 3 5 1 9 -4 9 -11 0 -25 -30 -17 -38 3 -3 5 1 5 8 0
11 2 12 13 1 10 -10 9 -14 -5 -22 -9 -5 -15 -18 -13 -28 5 -25 -20 -34 -37
-13 -8 10 -8 13 -1 9 6 -4 15 -2 18 4 5 7 0 10 -11 7 -14 -2 -19 -12 -19 -42
0 -25 -5 -41 -14 -44 -8 -3 -11 0 -7 7 4 6 2 11 -3 11 -6 0 -11 -8 -12 -17 0
-16 -1 -15 -8 2 -6 15 -9 10 -15 -24 -6 -41 -7 -42 -24 -24 -9 10 -14 14 -10
9 4 -5 -2 -21 -12 -36 -11 -15 -16 -31 -12 -36 4 -4 -1 -2 -10 5 -22 16 -40 5
-36 -22 1 -12 -2 -28 -6 -36 -6 -10 -5 -12 2 -7 7 4 10 2 6 -7 -2 -7 -11 -14
-18 -14 -8 0 -12 6 -10 12 3 6 -2 12 -11 12 -9 0 -15 -9 -15 -23 0 -13 -5 -26
-11 -30 -8 -5 -8 -9 1 -14 7 -5 2 -7 -14 -7 -14 0 -26 3 -26 8 0 5 -5 9 -11 9
-5 0 -8 -4 -5 -8 3 -5 0 -26 -6 -48 -6 -21 -13 -33 -15 -26 -3 6 -11 12 -18
12 -8 0 -19 8 -24 18 -9 14 -11 11 -12 -18 -1 -19 -1 -44 0 -55 0 -11 -2 -14
-5 -7 -8 17 -25 15 -18 -3 4 -8 1 -15 -5 -15 -6 0 -11 10 -11 22 l0 21 -20
-23 c-11 -12 -17 -26 -15 -30 3 -4 -1 -20 -9 -34 -12 -24 -14 -24 -18 -8 -3
10 -15 22 -27 25 -18 4 -20 3 -10 -9 10 -13 6 -18 -13 -15 -7 1 -11 -23 -11
-70 0 -11 -6 -15 -18 -12 -11 3 -19 9 -19 14 0 5 -8 9 -17 9 -15 0 -16 2 -3
10 13 8 12 10 -2 10 -10 0 -18 -6 -18 -14 0 -8 8 -17 18 -19 16 -4 16 -5 0 -6
-13 -1 -18 -10 -18 -30 0 -17 -5 -33 -11 -37 -9 -5 -10 1 -5 22 7 27 6 28 -7
9 -9 -11 -13 -24 -10 -29 4 -5 1 -6 -6 -1 -9 5 -10 10 -2 18 20 20 11 26 -16
12 -20 -11 -29 -11 -34 -3 -12 18 -39 -10 -35 -36 2 -11 -4 -27 -13 -34 -9 -8
-10 -11 -3 -7 6 3 12 1 12 -4 0 -19 -19 -12 -31 11 -8 14 -14 18 -17 10 -6
-18 -39 -15 -51 6 -6 9 -11 15 -11 12 -3 -14 -11 -57 -14 -74 -4 -27 -41 -52
-52 -35 -4 8 -3 9 4 5 18 -11 14 0 -5 15 -11 10 -14 10 -9 1 5 -8 1 -11 -16
-8 -13 2 -31 -1 -40 -6 -15 -7 -18 -4 -19 14 -1 17 -3 18 -6 6 -2 -10 -12 -18
-20 -18 -9 0 -22 8 -30 18 -8 9 -11 11 -7 3 5 -11 3 -13 -10 -8 -12 5 -19 0
-25 -15 -5 -14 -10 -18 -15 -10 -4 7 -11 10 -16 7 -14 -9 -23 15 -10 30 9 11
7 12 -9 8 -13 -3 -18 -10 -14 -21 5 -12 2 -14 -12 -9 -9 4 -23 2 -31 -3 -9 -9
-16 -6 -24 11 -11 20 -10 21 6 15 15 -6 16 -5 7 5 -10 10 -16 9 -29 -2 -16
-12 -17 -12 -11 4 6 15 4 16 -13 7 -11 -6 -25 -8 -30 -5 -6 3 -7 -1 -4 -10 5
-11 2 -14 -12 -8 -10 4 -15 2 -11 -4 3 -5 0 -10 -8 -10 -18 0 -19 9 -4 24 9 9
4 11 -17 8 -16 -1 -37 1 -46 6 -15 8 -18 6 -18 -12 0 -12 -3 -19 -7 -16 -3 4
-12 2 -20 -4 -16 -14 -17 -5 -2 24 7 12 8 19 4 15 -5 -4 -14 -3 -20 2 -9 8
-14 6 -18 -4 -4 -11 -1 -13 11 -10 14 5 14 3 -2 -10 -15 -12 -51 -16 -63 -5
-2 1 -9 2 -15 3 -7 1 -12 8 -10 16 1 8 -7 4 -19 -10 -20 -23 -22 -24 -34 -7
-7 10 -21 17 -32 15 -11 -2 -17 2 -15 11 3 12 0 12 -12 1 -11 -8 -16 -9 -16
-1 0 6 -5 11 -12 11 -9 0 -9 -3 0 -12 16 -16 16 -33 0 -21 -7 6 -21 9 -30 8
-10 -2 -18 2 -18 8 0 7 -4 6 -10 -3 -7 -11 -12 -12 -21 -3 -9 9 -18 9 -32 2
-13 -8 -17 -8 -13 -1 3 6 2 13 -4 17 -5 3 -10 -1 -10 -9 0 -9 -5 -16 -11 -16
-5 0 -7 4 -4 10 7 11 -9 13 -42 4 -13 -4 -20 -11 -16 -18 3 -6 -4 -2 -16 9
-19 16 -24 17 -31 5 -9 -14 -14 -7 -11 13 1 5 -3 6 -9 2 -6 -3 -8 -10 -6 -13
2 -4 -18 -8 -45 -8 -44 0 -48 2 -45 20 3 17 -2 21 -25 22 -16 1 -29 -3 -29 -8
0 -5 5 -6 10 -3 6 3 10 1 10 -4 0 -6 -7 -11 -16 -11 -8 0 -13 -4 -9 -9 3 -6
-4 -9 -15 -8 -11 1 -20 7 -20 14 0 7 7 10 18 6 14 -5 15 -3 5 7 -10 11 -15 11
-28 0 -13 -11 -18 -9 -34 9 -20 23 -41 30 -22 8 6 -8 8 -17 4 -20 -3 -4 0 -7
7 -7 7 0 11 -2 8 -5 -10 -11 -58 7 -58 21 0 8 -4 14 -10 14 -5 0 -10 -4 -10
-10 0 -5 -7 -10 -15 -10 -8 0 -15 5 -15 10 0 6 -10 10 -22 9 -13 0 -17 -3 -10
-6 14 -5 17 -33 3 -33 -5 0 -11 7 -15 15 -3 8 -13 15 -23 15 -14 0 -15 -2 -5
-9 10 -6 9 -10 -7 -14 -12 -3 -19 -2 -17 2 2 3 -1 13 -8 22 -9 14 -13 14 -24
3 -7 -8 -8 -14 -2 -14 5 0 10 -5 10 -12 0 -8 -7 -6 -17 5 -16 16 -16 19 -3 28
13 9 12 10 -2 5 -10 -3 -20 -1 -23 4 -3 4 -17 6 -33 4 -15 -2 -47 -5 -72 -6
-25 -2 -50 -10 -57 -18 -11 -13 -12 -13 -13 3 0 10 -5 15 -10 12 -6 -4 -18 -1
-26 6 -12 10 -15 10 -12 -2 2 -8 8 -17 13 -21 6 -4 -1 -8 -14 -8 -18 0 -22 4
-18 20 3 10 0 21 -7 23 -17 6 -56 -15 -56 -30 0 -8 -5 -11 -10 -8 -6 4 -7 12
-3 18 4 7 0 6 -10 -2 -15 -12 -17 -11 -17 2 0 10 -6 14 -14 11 -8 -3 -17 -1
-21 5 -8 14 -25 14 -25 1 0 -6 5 -9 11 -8 6 2 13 -2 16 -8 6 -16 -34 -10 -55
9 -18 17 -32 14 -32 -7 0 -6 5 -4 10 4 6 9 10 10 10 3 0 -23 -21 -25 -39 -4
-18 20 -18 20 -36 1 -14 -15 -21 -17 -35 -7 -10 6 -16 16 -13 22 2 5 -5 -1
-16 -15 -20 -25 -20 -25 -16 -2 2 13 0 20 -6 16 -5 -3 -16 -1 -24 6 -10 8 -17
6 -28 -10 -16 -23 -26 -17 -22 12 2 11 -3 16 -15 15 -10 -1 -16 -5 -14 -9 3
-4 1 -8 -5 -8 -5 0 -12 4 -16 10 -3 5 -12 7 -20 3 -12 -4 -15 -30 -15 -137 -1
-109 -4 -138 -20 -171 -11 -22 -19 -44 -20 -49 0 -22 -88 -188 -138 -261 -69
-101 -126 -169 -227 -268 -159 -157 -316 -255 -505 -317 -136 -45 -191 -52
-372 -48 l-167 3 -12 -50 c-16 -68 -51 -157 -120 -303 l-58 -122 19 -45 c30
-70 41 -152 50 -379 9 -226 28 -332 72 -405 164 -273 338 -443 570 -557 150
-73 198 -92 403 -159 306 -100 381 -142 459 -259 23 -35 26 -48 26 -130 0 -84
-3 -98 -34 -163 -48 -99 -96 -161 -212 -275 -210 -205 -415 -335 -784 -496
-25 -11 -70 -27 -100 -37 -30 -10 -59 -21 -65 -25 -34 -26 -411 -115 -575
-135 -136 -18 -550 -20 -702 -4 -307 32 -610 116 -859 239 -303 149 -521 338
-708 610 -48 70 -128 237 -164 340 -79 230 -102 401 -94 705 4 173 9 233 31
340 26 132 74 297 106 370 39 87 50 117 45 125 -2 4 -26 10 -52 14 -51 6 -143
33 -333 97 -143 47 -208 73 -377 151 -85 38 -234 210 -303 347 -37 74 -50 132
-50 229 0 110 13 149 73 210 79 82 208 129 482 177 192 33 399 76 410 85 6 4
33 15 60 24 135 44 198 122 245 306 11 43 28 92 37 108 l17 29 -39 34 c-105
92 -205 208 -248 289 -46 87 -63 110 -84 110 -7 0 -17 -10 -22 -22 l-8 -22 -5
22 c-4 12 -3 20 2 17 9 -6 23 25 15 33 -3 3 -5 1 -5 -5 0 -6 -11 -13 -25 -15
-13 -3 -22 -1 -19 3 3 5 -4 9 -15 9 -23 0 -29 -16 -9 -22 7 -3 2 -7 -10 -10
-12 -4 -20 -2 -16 3 3 5 -2 9 -10 9 -9 0 -16 5 -16 12 0 7 -6 7 -17 -3 -10 -8
-28 -19 -40 -26 -19 -11 -21 -10 -18 13 2 19 0 22 -11 13 -11 -9 -14 -8 -14 1
0 8 -3 10 -7 7 -3 -4 -12 -2 -19 4 -10 9 -15 7 -20 -5 -3 -9 -14 -16 -23 -16
-14 0 -14 2 -1 10 8 5 10 10 4 10 -15 0 -36 -25 -27 -33 3 -4 3 -7 -1 -7 -3 0
-11 10 -16 23 -7 17 -9 18 -9 5 -1 -19 -21 -26 -21 -8 0 6 -7 10 -15 10 -9 0
-18 6 -21 14 -6 15 -54 19 -54 4 0 -5 4 -6 10 -3 12 7 13 -5 2 -20 -9 -13 -42
-18 -42 -7 0 6 -7 13 -16 16 -8 3 -12 2 -9 -4 4 -6 -3 -9 -14 -7 -24 4 -40 17
-21 17 7 0 10 3 7 7 -4 3 -16 -2 -26 -11 -24 -22 -45 -13 -31 14 8 15 6 18 -8
15 -9 -1 -16 -10 -16 -19 2 -21 -5 -20 -23 2 -8 9 -11 11 -7 3 5 -9 3 -12 -4
-7 -7 4 -12 14 -12 23 0 12 -3 13 -14 3 -8 -6 -12 -18 -9 -26 8 -22 -14 -17
-30 7 -13 18 -16 19 -24 5 -10 -19 -43 -17 -67 3 -9 8 -19 11 -23 8 -3 -4 -12
-2 -19 4 -10 8 -12 5 -8 -15 2 -15 0 -26 -6 -26 -6 0 -9 4 -6 8 6 11 -4 24
-31 39 -12 7 -25 9 -28 4 -3 -5 0 -11 7 -13 8 -3 8 -9 0 -24 -10 -17 -11 -17
-12 -1 0 20 -4 21 -30 7 -14 -7 -19 -5 -23 10 -3 11 -12 20 -20 20 -10 0 -13
-7 -10 -19 4 -16 1 -19 -16 -14 -12 3 -28 0 -36 -7 -14 -11 -14 -10 -5 14 10
27 10 27 -27 20 -29 -5 -34 -4 -28 7 7 11 6 12 -6 2 -12 -10 -18 -10 -29 0
-11 9 -10 7 0 -7 14 -17 13 -18 -7 -12 -13 4 -24 2 -29 -5 -4 -8 -3 -9 4 -5 7
4 12 2 12 -4 0 -7 -7 -9 -16 -6 -9 3 -18 6 -20 6 -3 0 -2 5 1 10 4 6 -5 10
-19 10 -14 0 -26 5 -26 12 0 6 -3 8 -7 5 -3 -4 1 -15 10 -25 14 -16 15 -19 2
-19 -8 0 -17 9 -21 19 -3 10 -9 18 -14 18 -5 0 -7 -6 -4 -14 3 -8 0 -17 -7
-22 -7 -4 -10 -3 -5 4 3 6 1 14 -5 18 -8 4 -4 11 12 20 23 12 22 12 -14 11
-42 -1 -43 -3 -20 -29 9 -10 14 -21 10 -24 -3 -3 -13 6 -22 20 -10 14 -22 26
-29 26 -6 0 -4 -5 4 -10 13 -9 13 -10 -1 -10 -8 0 -20 5 -27 12 -13 13 -42 20
-41 10 3 -19 -3 -45 -8 -34 -2 6 -9 12 -14 12 -6 0 -7 -4 -4 -10 3 -5 1 -10
-4 -10 -6 0 -11 7 -11 15 0 9 -10 15 -26 15 -17 0 -23 4 -18 13 5 8 3 8 -9 -2
-9 -7 -14 -18 -10 -24 4 -6 -8 -1 -25 12 l-32 22 -11 -25 c-11 -23 -13 -24
-34 -10 -12 8 -25 11 -28 7 -4 -3 -7 -1 -7 5 0 7 -13 12 -30 12 -16 0 -30 -4
-30 -10 0 -5 -4 -10 -9 -10 -5 0 -7 10 -3 22 l5 21 -22 -22 c-12 -12 -26 -19
-31 -16 -17 11 -11 23 8 18 12 -3 19 1 19 12 0 10 -4 12 -10 6 -5 -5 -16 -7
-24 -4 -9 4 -16 -2 -20 -16 -3 -11 -9 -18 -14 -15 -5 3 -7 9 -5 13 10 15 -46
5 -58 -11 -7 -10 -17 -13 -25 -9 -9 6 -10 11 -3 15 14 9 5 33 -13 33 -7 0 -12
-8 -10 -19 3 -15 1 -16 -15 -8 -24 13 -63 13 -55 0 4 -6 11 -8 16 -5 5 4 9 1
9 -4 0 -18 -18 -13 -33 9 -13 18 -15 18 -37 3 -22 -16 -23 -16 -18 9 5 27 -12
31 -47 9 -18 -11 -17 -12 10 -7 17 3 24 3 17 0 -6 -3 -10 -10 -7 -14 3 -5 -7
-5 -22 -1 -16 4 -34 6 -42 3 -8 -3 -12 1 -9 9 3 8 11 13 17 12 6 -2 11 2 11 7
0 6 -12 9 -27 7 -16 -3 -27 -9 -26 -15 1 -5 -7 -8 -18 -5 -12 3 -24 0 -29 -6
-5 -9 -9 -8 -13 4 -4 9 -3 14 2 11 5 -3 11 1 15 9 7 20 -16 14 -33 -8 -14 -20
-33 -11 -37 18 -2 12 1 14 11 5 11 -9 12 -7 8 9 -3 12 -13 21 -22 22 -12 0
-11 2 4 9 23 10 5 13 -19 4 -9 -3 -13 -11 -9 -17 3 -6 1 -7 -6 -3 -9 6 -9 11
-1 21 8 10 1 12 -34 9 l-44 -4 2 41 1 42 -44 1 c-27 0 -46 -4 -49 -12 -2 -6 1
-12 8 -12 6 0 8 5 4 12 -4 7 -3 8 5 4 12 -8 6 -26 -10 -26 -11 0 -32 48 -31
72 0 10 -4 21 -10 24 -7 4 -8 2 -4 -4 5 -8 -2 -12 -19 -12 -15 0 -24 4 -20 10
4 6 11 7 17 4 7 -5 8 -2 4 5 -5 7 -14 10 -22 7 -13 -5 -18 5 -15 32 2 12 -11
15 -59 14 -14 0 -20 2 -13 5 8 3 9 10 3 21 -5 9 -11 26 -15 37 -5 16 -8 17
-15 5 -7 -11 -10 -12 -10 -2 0 7 -4 11 -9 8 -10 -7 -21 16 -21 44 0 20 -26 34
-43 23 -8 -5 -8 -2 0 9 13 15 8 28 -9 28 -5 0 -7 -4 -4 -9 3 -4 0 -16 -7 -25
-11 -16 -13 -13 -11 21 1 32 -2 39 -18 40 -10 1 -16 -2 -13 -7 4 -6 -2 -7 -11
-3 -12 4 -14 8 -6 11 10 3 10 7 0 20 -11 13 -11 14 2 7 13 -8 13 -7 0 11 -22
27 -31 33 -49 27 -14 -4 -14 -3 -1 6 13 9 13 12 1 20 -7 5 -10 14 -7 20 14 22
-6 33 -27 14 -11 -10 -17 -13 -14 -6 4 6 3 14 -3 18 -5 3 -10 21 -11 38 0 18
-3 26 -6 20 -3 -10 -8 -9 -19 2 -8 7 -13 18 -12 22 2 4 -9 19 -23 34 -19 18
-25 34 -24 59 2 30 1 31 -12 15 -7 -11 -13 -13 -13 -6 0 7 -4 9 -10 6 -6 -4
-10 5 -10 20 0 15 -5 36 -11 47 -9 17 -13 18 -20 7 -9 -15 -3 44 11 99 10 39
3 42 -11 6 -11 -31 -24 -24 -24 14 0 17 -5 26 -13 24 -10 -2 -10 2 -2 18 8 16
8 20 -2 18 -7 -2 -14 7 -16 20 -2 14 -8 20 -15 15 -7 -4 -5 2 3 12 9 11 10 16
3 11 -17 -10 -20 14 -9 79 4 22 4 24 -2 7 l-7 -22 -13 21 c-10 16 -10 19 -1
13 7 -4 5 3 -4 17 -9 13 -17 32 -17 42 0 10 -4 15 -10 12 -6 -3 -10 -2 -10 4
0 5 5 11 11 13 6 2 12 18 13 35 1 18 -2 30 -6 27 -4 -3 -8 2 -8 10 0 19 -16
21 -23 4 -3 -7 -4 10 -2 37 2 28 2 42 -1 33 -9 -31 -22 -20 -20 17 1 25 -2 34
-11 30 -7 -2 -13 -1 -14 3 -4 43 -3 79 4 75 4 -2 7 10 7 26 0 17 -4 31 -10 31
-5 0 -10 6 -10 14 0 7 -7 19 -15 26 -10 8 -14 26 -12 51 2 22 -1 39 -6 39 -5
0 -7 11 -5 25 3 14 1 25 -5 25 -5 0 -3 8 4 17 8 9 9 14 3 10 -7 -4 -14 2 -17
14 -4 15 -11 20 -22 15 -10 -3 -14 -2 -10 5 4 6 14 8 22 5 9 -4 13 -1 10 6 -2
7 -9 12 -14 11 -11 -2 -17 33 -14 92 2 37 -2 54 -13 52 -7 -1 -10 13 -8 35 2
30 0 36 -12 32 -11 -4 -14 0 -11 15 2 11 0 23 -6 26 -5 4 -9 20 -9 37 0 22 -4
29 -14 25 -10 -4 -13 -1 -9 8 3 8 9 13 13 10 5 -3 12 0 16 6 4 7 3 9 -3 6 -15
-9 -23 29 -9 44 8 9 8 10 0 6 -15 -8 -27 34 -17 59 5 13 3 16 -10 11 -13 -5
-17 -1 -16 16 1 12 -2 32 -4 45 -3 12 -1 22 5 22 7 0 7 4 1 13 -6 6 -9 20 -8
30 2 9 0 15 -5 12 -11 -7 -23 27 -12 34 10 7 11 51 1 45 -4 -2 -11 22 -14 53
-4 32 -12 64 -17 71 -8 9 -5 12 8 13 11 0 14 3 7 6 -7 2 -13 18 -13 34 0 16
-4 29 -9 29 -5 0 -8 13 -7 29 1 17 -2 28 -6 25 -4 -3 -8 4 -8 16 0 12 -4 18
-10 15 -10 -6 -14 13 -10 49 1 10 -2 16 -7 13 -4 -3 -6 17 -5 44 3 36 0 49
-10 49 -10 0 -9 3 2 10 10 6 11 10 2 10 -16 0 -11 21 8 37 13 12 13 12 -1 8
-13 -5 -15 0 -12 27 3 23 2 29 -5 19 -7 -9 -9 2 -6 35 2 27 1 43 -2 36 -11
-23 -22 -3 -17 32 2 19 0 37 -6 40 -6 4 -8 13 -5 21 4 8 11 12 16 9 6 -4 5 3
-2 15 -8 16 -8 26 -1 35 7 9 7 16 -1 24 -15 15 -18 74 -5 92 10 13 10 13 -5 2
-18 -14 -22 -10 -32 31 -4 19 -3 26 4 22 5 -3 10 -2 10 4 0 5 -4 12 -10 16 -5
3 -7 12 -3 20 3 8 0 15 -7 15 -7 0 -10 6 -7 14 3 8 1 17 -6 20 -9 3 -9 5 1 5
7 1 12 14 12 32 0 18 -4 28 -10 24 -16 -10 -7 18 10 32 9 8 11 12 3 13 -8 0
-9 9 -3 30 7 23 5 30 -6 30 -8 0 -14 8 -14 18 0 15 2 15 11 2 9 -12 10 -12 5
3 -3 10 -6 33 -6 50 0 25 -3 29 -11 17 -10 -15 -9 -5 8 65 9 40 11 85 2 85 -5
0 -9 5 -9 11 0 5 5 7 11 3 8 -4 8 -1 1 12 -11 22 -5 47 10 38 6 -4 8 -1 6 7
-3 8 -12 13 -19 11 -9 -2 -8 2 4 15 12 14 14 22 6 30 -8 8 -9 22 -3 40 4 15 8
33 9 38 0 6 4 15 7 21 4 6 3 26 -2 45 -5 18 -6 35 -2 38 10 8 9 73 -1 89 -5 7
-5 12 0 11 20 -3 27 2 13 11 -10 6 -11 10 -2 10 6 0 12 12 12 26 0 14 4 23 9
20 5 -4 7 3 4 14 -4 13 0 20 9 20 8 0 15 7 15 15 0 8 -4 15 -9 15 -4 0 -8 7
-8 15 0 8 4 15 9 15 5 0 12 7 15 16 5 14 4 15 -8 5 -12 -10 -12 -7 -2 21 6 18
15 39 20 47 7 11 6 12 -5 5 -9 -5 -7 2 5 20 17 26 17 30 2 38 -17 9 -13 28 5
28 6 0 7 -5 3 -12 -4 -7 -3 -8 5 -4 7 5 8 13 2 23 -10 19 -3 53 12 53 6 0 7 3
4 6 -4 4 -14 1 -24 -7 -14 -12 -13 -9 2 15 11 16 20 39 20 50 1 32 15 66 27
66 6 0 8 3 5 7 -4 3 -2 12 5 20 6 7 8 16 4 20 -3 3 -6 1 -6 -6 0 -7 -4 -9 -10
-6 -12 7 -14 26 -2 24 4 -1 14 -1 22 0 13 1 13 2 0 11 -12 8 -12 10 5 10 17 0
17 2 5 10 -11 7 -11 10 -2 10 7 0 10 5 7 10 -3 6 4 10 17 11 22 0 22 1 3 8
l-20 8 20 4 c17 4 18 5 3 11 -12 5 -49 -25 -137 -109z m1309 -4937 c0 -3 -4
-8 -10 -11 -5 -3 -10 -1 -10 4 0 6 5 11 10 11 6 0 10 -2 10 -4z m405 -106 c3
-5 1 -10 -4 -10 -6 0 -11 5 -11 10 0 6 2 10 4 10 3 0 8 -4 11 -10z m395 -11
c0 -6 -4 -7 -10 -4 -5 3 -10 11 -10 16 0 6 5 7 10 4 6 -3 10 -11 10 -16z m177
5 c-3 -3 -12 -4 -19 -1 -8 3 -5 6 6 6 11 1 17 -2 13 -5z m283 -25 c0 -6 -4 -7
-10 -4 -5 3 -10 11 -10 16 0 6 5 7 10 4 6 -3 10 -11 10 -16z m410 -13 c0 -3
-4 -8 -10 -11 -5 -3 -10 -1 -10 4 0 6 5 11 10 11 6 0 10 -2 10 -4z m320 -11
c0 -12 -19 -12 -23 0 -4 9 -1 12 9 8 7 -3 14 -7 14 -8z m144 0 c3 -8 1 -15 -4
-15 -6 0 -10 7 -10 15 0 8 2 15 4 15 2 0 6 -7 10 -15z m4647 -169 c8 5 10 2 6
-8 -3 -9 0 -21 6 -27 7 -7 1 -6 -16 1 -15 7 -27 18 -27 23 0 6 -5 3 -10 -5 -8
-13 -10 -13 -10 1 0 23 11 30 26 18 7 -6 19 -7 25 -3z m705 -39 c2 -18 -22
-12 -30 8 -3 8 2 12 11 11 9 -2 17 -10 19 -19z m-80 2 c3 -6 1 -16 -5 -22 -8
-8 -11 -6 -11 8 0 15 -3 16 -12 7 -7 -7 -19 -12 -27 -12 -10 0 -6 6 9 14 32
18 37 18 46 5z m39 1 c3 -6 -1 -7 -9 -4 -18 7 -21 14 -7 14 6 0 13 -4 16 -10z
m859 -46 c3 -8 2 -12 -4 -9 -6 3 -10 10 -10 16 0 14 7 11 14 -7z m36 -4 c0 -5
-2 -10 -4 -10 -3 0 -8 5 -11 10 -3 6 -1 10 4 10 6 0 11 -4 11 -10z m235 1 c3
-5 1 -12 -5 -16 -5 -3 -10 1 -10 9 0 18 6 21 15 7z m116 -18 c-12 -20 -14 -14
-5 12 4 9 9 14 11 11 3 -2 0 -13 -6 -23z"/>
<path d="M13775 12320 c3 -5 8 -10 11 -10 2 0 4 5 4 10 0 6 -5 10 -11 10 -5 0
-7 -4 -4 -10z"/>
<path d="M6465 12209 c-33 -41 -89 -110 -126 -154 -68 -83 -78 -105 -149 -315
-63 -189 -116 -413 -150 -635 -10 -65 -34 -405 -34 -470 1 -109 18 -275 28
-275 6 0 4 -5 -4 -11 -12 -9 -12 -10 3 -5 10 3 23 6 29 6 6 0 5 7 -3 17 -8 9
-9 14 -2 10 6 -4 19 0 27 9 9 8 16 12 16 7 0 -5 9 -9 20 -10 19 -2 24 7 20 36
-1 10 6 12 24 9 18 -4 26 -1 26 9 0 8 -5 11 -12 7 -10 -5 -10 -3 0 7 11 12 14
12 21 0 7 -11 9 -11 13 0 4 11 8 12 20 2 19 -16 30 -6 18 18 -6 9 -6 19 -1 21
4 2 4 35 -2 73 -15 111 -11 505 6 610 52 307 135 549 274 797 48 87 49 88 29
172 -8 34 -18 79 -23 100 l-8 39 -60 -74z m-325 -1805 c0 -8 -19 -13 -24 -6
-3 5 1 9 9 9 8 0 15 -2 15 -3z"/>
<path d="M7670 12227 c-482 -281 -829 -697 -1098 -1317 -11 -25 -27 -70 -37
-100 -10 -30 -21 -60 -26 -66 -13 -16 -51 -183 -44 -194 9 -15 25 -12 25 5 0
8 6 12 14 9 8 -3 19 3 26 16 6 11 15 18 20 15 4 -3 11 1 13 7 4 10 6 10 6 -1
1 -8 9 -5 22 10 11 13 18 19 15 13 -8 -15 28 -24 45 -12 11 8 11 9 -2 5 -9 -3
-16 0 -16 7 0 6 8 12 18 12 10 0 17 -3 17 -6 -2 -18 4 -21 19 -9 14 12 16 12
8 0 -6 -10 -4 -12 4 -7 7 5 10 14 8 21 -4 8 4 12 21 11 18 -1 26 4 24 12 -1 8
2 11 8 7 6 -3 8 -11 5 -16 -9 -14 5 -11 21 6 8 8 22 38 30 67 9 29 20 58 25
64 5 6 18 35 28 65 11 30 31 78 45 106 14 29 26 55 26 58 0 4 61 115 157 283
87 154 181 273 343 437 147 149 170 176 183 220 8 28 31 103 51 169 20 65 36
120 34 121 -2 1 -19 -7 -38 -18z"/>
<path d="M10376 10832 l-86 -158 0 -220 c-1 -202 -3 -230 -30 -359 -59 -286
-116 -475 -213 -700 -36 -83 -142 -287 -171 -330 -15 -22 -25 -47 -23 -57 3
-10 0 -21 -5 -25 -7 -4 -8 -1 -3 7 5 9 4 11 -4 6 -6 -4 -9 -12 -5 -17 3 -5 10
-6 16 -3 6 4 9 -7 7 -28 -2 -25 3 -40 20 -57 17 -17 20 -26 11 -36 -8 -9 -7
-16 2 -26 8 -8 13 -24 12 -37 -1 -19 1 -20 14 -10 10 8 13 9 9 2 -4 -7 0 -15
8 -18 12 -4 13 -10 5 -25 -14 -27 -13 -31 8 -25 16 5 16 5 0 -9 -22 -17 -23
-31 -3 -23 8 3 15 1 15 -3 0 -5 -6 -12 -12 -14 -10 -4 -10 -6 0 -6 13 -1 95
99 124 150 9 17 22 38 30 47 7 9 18 27 25 38 87 158 116 212 148 284 20 47 43
99 51 115 16 35 73 200 104 299 25 81 65 248 85 359 52 280 41 677 -26 946
-12 47 -23 87 -24 89 -2 2 -42 -68 -89 -156z"/>
<path d="M6720 10630 c0 -5 5 -10 11 -10 5 0 7 5 4 10 -3 6 -8 10 -11 10 -2 0
-4 -4 -4 -10z"/>
<path d="M6593 10604 c4 -4 1 -14 -6 -23 -11 -14 -10 -15 8 -1 11 8 21 15 23
16 2 1 -5 5 -15 8 -9 4 -14 4 -10 0z"/>
<path d="M8326 10455 c5 -13 22 -13 55 0 10 3 20 1 24 -5 3 -6 1 -9 -6 -8 -6
2 -14 -4 -16 -12 -4 -13 -3 -13 6 0 6 8 11 11 11 6 0 -5 8 -2 17 5 11 10 14
10 9 2 -4 -8 -2 -13 4 -13 7 0 10 -7 6 -15 -5 -13 -2 -13 19 1 22 14 25 14 19
1 -10 -26 11 -27 30 -1 14 18 29 24 60 25 l41 1 -45 9 c-25 5 -89 11 -142 13
-78 3 -96 2 -92 -9z"/>
<path d="M11223 10097 c-87 -59 -93 -64 -104 -110 -62 -256 -246 -616 -433
-847 -113 -139 -335 -349 -441 -416 -16 -10 -32 -21 -35 -24 -12 -12 -117 -80
-142 -91 -16 -7 -28 -16 -28 -20 0 -5 -17 -11 -37 -15 -21 -4 -32 -9 -26 -11
9 -3 10 -10 3 -23 -7 -14 -6 -23 6 -34 8 -9 13 -20 10 -25 -4 -5 0 -11 6 -14
10 -3 10 -8 -2 -23 -14 -17 -14 -18 2 -6 11 9 18 10 23 2 3 -5 2 -10 -3 -10
-5 0 -12 -9 -15 -21 -4 -14 -2 -19 8 -15 8 3 15 -5 18 -20 2 -13 0 -24 -5 -24
-5 0 -2 -7 6 -16 17 -17 21 -28 7 -20 -12 8 -19 -15 -12 -42 l6 -23 49 33 c27
18 59 40 71 48 24 17 107 82 115 90 3 3 30 25 60 49 213 173 467 456 637 711
128 191 288 492 311 586 18 70 53 394 43 394 -4 0 -47 -29 -98 -63z m-1213
-1567 c0 -5 -8 -10 -17 -10 -15 0 -16 2 -3 10 19 12 20 12 20 0z m37 -252 c-3
-8 -6 -5 -6 6 -1 11 2 17 5 13 3 -3 4 -12 1 -19z"/>
<path d="M2466 9037 c3 -10 9 -15 12 -12 3 3 0 11 -7 18 -10 9 -11 8 -5 -6z"/>
<path d="M9860 8876 c0 -2 7 -7 16 -10 8 -3 12 -2 9 4 -6 10 -25 14 -25 6z"/>
<path d="M2755 8650 c-3 -5 -2 -10 4 -10 5 0 13 5 16 10 3 6 2 10 -4 10 -5 0
-13 -4 -16 -10z"/>
<path d="M12756 8321 c-3 -5 1 -11 9 -14 9 -4 12 -1 8 9 -6 16 -10 17 -17 5z"/>
<path d="M3497 8279 c7 -7 15 -10 18 -7 3 3 -2 9 -12 12 -14 6 -15 5 -6 -5z"/>
<path d="M3765 8270 c-3 -5 1 -10 10 -10 9 0 13 5 10 10 -3 6 -8 10 -10 10 -2
0 -7 -4 -10 -10z"/>
<path d="M3840 8252 c0 -15 28 -23 36 -9 4 7 4 9 -1 5 -4 -4 -14 -3 -22 3 -8
7 -13 8 -13 1z"/>
<path d="M4020 8250 c0 -5 5 -10 10 -10 6 0 10 5 10 10 0 6 -4 10 -10 10 -5 0
-10 -4 -10 -10z"/>
<path d="M4710 8221 c0 -10 26 -9 36 2 4 4 -2 7 -14 7 -12 0 -22 -4 -22 -9z"/>
<path d="M5136 8222 c-3 -5 1 -9 9 -9 8 0 12 4 9 9 -3 4 -7 8 -9 8 -2 0 -6 -4
-9 -8z"/>
<path d="M5024 8209 c-3 -6 -1 -16 4 -21 8 -8 11 -5 9 11 -1 24 -3 25 -13 10z"/>
<path d="M5336 8194 c-11 -8 -16 -14 -10 -14 13 0 39 18 34 24 -3 2 -14 -2
-24 -10z"/>
<path d="M9260 8038 c0 -10 -5 -18 -11 -18 -5 0 -7 5 -4 10 3 6 1 10 -4 10 -6
0 -11 -5 -11 -11 0 -5 -4 -7 -10 -4 -5 3 -10 -1 -10 -10 0 -9 -4 -14 -8 -11
-9 5 -83 -26 -115 -50 -21 -15 -17 -15 68 -9 50 4 95 11 100 15 6 4 63 13 128
20 64 7 117 17 117 22 0 5 -5 6 -12 2 -8 -5 -9 -2 -5 9 5 13 1 16 -18 15 -13
-1 -21 -6 -19 -10 3 -5 10 -5 16 -2 7 5 8 2 3 -6 -6 -10 -12 -9 -24 6 -17 20
-34 24 -47 12 -12 -13 -62 -9 -67 5 -2 6 -8 9 -12 5 -4 -4 -3 -14 3 -21 9 -10
8 -14 -3 -14 -8 0 -15 9 -15 19 0 12 -4 16 -11 12 -6 -3 -15 0 -20 7 -7 11 -9
10 -9 -3z m160 -28 c0 -5 -5 -10 -11 -10 -5 0 -7 5 -4 10 3 6 8 10 11 10 2 0
4 -4 4 -10z"/>
<path d="M9350 8040 c20 -13 43 -13 35 0 -3 6 -16 10 -28 10 -18 0 -19 -2 -7
-10z"/>
<path d="M9504 8029 c-10 -17 14 -35 28 -21 9 9 9 12 -1 12 -7 0 -9 5 -6 10 3
6 2 10 -4 10 -5 0 -13 -5 -17 -11z"/>
<path d="M9563 8033 c-7 -2 -10 -10 -7 -17 6 -16 69 -5 88 14 8 8 3 8 -16 -1
-19 -8 -31 -9 -40 -2 -7 6 -18 8 -25 6z"/>
<path d="M9668 8033 c7 -3 16 -2 19 1 4 3 -2 6 -13 5 -11 0 -14 -3 -6 -6z"/>
<path d="M10670 7989 c0 -5 5 -7 10 -4 6 3 10 8 10 11 0 2 -4 4 -10 4 -5 0
-10 -5 -10 -11z"/>
<path d="M10895 7990 c3 -5 8 -10 11 -10 2 0 4 5 4 10 0 6 -5 10 -11 10 -5 0
-7 -4 -4 -10z"/>
<path d="M11063 7965 c0 -7 6 -11 14 -8 7 3 13 6 13 8 0 2 -6 5 -13 8 -8 3
-14 -1 -14 -8z"/>
<path d="M11166 7964 c-6 -15 -4 -15 11 -3 10 7 20 15 22 16 2 2 -3 3 -11 3
-9 0 -19 -7 -22 -16z"/>
<path d="M11026 7962 c-3 -5 1 -9 9 -9 8 0 12 4 9 9 -3 4 -7 8 -9 8 -2 0 -6
-4 -9 -8z"/>
<path d="M11895 7940 c-3 -5 -1 -10 4 -10 6 0 11 5 11 10 0 6 -2 10 -4 10 -3
0 -8 -4 -11 -10z"/>
<path d="M12106 7933 c-6 -14 -5 -15 5 -6 7 7 10 15 7 18 -3 3 -9 -2 -12 -12z"/>
<path d="M11961 7927 c-8 -10 -7 -14 4 -14 8 0 15 6 15 14 0 7 -2 13 -4 13 -2
0 -9 -6 -15 -13z"/>
</g>
</svg>
